<svg width="737" height="239" viewBox="0 0 737 239" fill="none" xmlns="http://www.w3.org/2000/svg">
<rect width="240.536" height="34.6353" rx="17.3177" transform="matrix(0.48925 0.872144 -0.912375 0.409356 130.184 8.60815)" fill="#ED2885"/>
<rect width="240.223" height="34.6748" rx="17.3374" transform="matrix(0.476388 -0.879235 0.91755 0.397621 0 219.212)" fill="#00BBF1" fill-opacity="0.56"/>
<rect x="85.666" y="152.713" width="75.4677" height="13.3768" rx="6.68841" fill="#F3CA27"/>
<rect x="115.921" y="221.117" width="67.4922" height="14.9576" rx="7.47878" transform="rotate(-90 115.921 221.117)" fill="#F3CA27"/>
<path d="M304.36 225V184.2H317.02C321.7 184.2 325.3 185.62 327.82 188.46C330.34 191.26 331.6 195.14 331.6 200.1V209.04C331.6 214.04 330.34 217.96 327.82 220.8C325.3 223.6 321.7 225 317.02 225H304.36ZM316.9 189.12H309.58V220.14H316.9C323.1 220.14 326.2 216.44 326.2 209.04V200.1C326.2 192.78 323.1 189.12 316.9 189.12ZM346.703 188.04H341.183V182.52H346.703V188.04ZM346.403 225H341.483V195.3H346.403V225ZM380.77 228.72C380.77 231.64 379.57 233.98 377.17 235.74C374.81 237.5 371.55 238.38 367.39 238.38C365.31 238.38 363.13 238.1 360.85 237.54C358.61 236.98 356.49 236.08 354.49 234.84L356.17 231C358.17 232.12 360.09 232.9 361.93 233.34C363.81 233.82 365.63 234.06 367.39 234.06C370.11 234.06 372.21 233.62 373.69 232.74C375.17 231.86 375.91 230.68 375.91 229.2C375.91 228.12 375.55 227.28 374.83 226.68C374.11 226.12 372.95 225.84 371.35 225.84H364.45C361.85 225.84 359.97 225.22 358.81 223.98C357.65 222.74 357.07 221.38 357.07 219.9C357.07 218.86 357.31 217.84 357.79 216.84C358.27 215.8 358.95 214.78 359.83 213.78C358.43 212.94 357.31 211.8 356.47 210.36C355.63 208.88 355.21 207.1 355.21 205.02C355.21 202.74 355.69 200.84 356.65 199.32C357.65 197.8 358.97 196.66 360.61 195.9C362.25 195.1 364.09 194.7 366.13 194.7H367.15C368.55 194.7 369.83 194.9 370.99 195.3H381.67V199.68L375.19 198.78C376.03 199.5 376.71 200.4 377.23 201.48C377.75 202.52 378.01 203.8 378.01 205.32C378.01 207.48 377.51 209.3 376.51 210.78C375.55 212.26 374.25 213.4 372.61 214.2C370.97 214.96 369.15 215.34 367.15 215.34H366.13C365.61 215.34 365.11 215.32 364.63 215.28C364.15 215.2 363.67 215.12 363.19 215.04C362.03 216.32 361.45 217.58 361.45 218.82C361.45 220.42 362.57 221.22 364.81 221.22H371.53C374.41 221.22 376.67 221.86 378.31 223.14C379.95 224.42 380.77 226.28 380.77 228.72ZM367.15 211.08C368.71 211.08 370.09 210.58 371.29 209.58C372.49 208.58 373.09 207.06 373.09 205.02C373.09 203.02 372.49 201.52 371.29 200.52C370.09 199.48 368.71 198.96 367.15 198.96H366.13C364.53 198.96 363.13 199.48 361.93 200.52C360.73 201.52 360.13 203.02 360.13 205.02C360.13 207.06 360.73 208.58 361.93 209.58C363.13 210.58 364.53 211.08 366.13 211.08H367.15ZM393.402 188.04H387.882V182.52H393.402V188.04ZM393.102 225H388.182V195.3H393.102V225ZM420.03 223.92C417.79 225.04 415.41 225.6 412.89 225.6C410.73 225.6 409.03 225.16 407.79 224.28C406.59 223.4 405.73 222.22 405.21 220.74C404.73 219.26 404.49 217.62 404.49 215.82V199.62H399.33V195.3H404.49V187.02H409.41V195.3H419.13V199.62H409.41V215.64C409.41 217.72 409.75 219.16 410.43 219.96C411.15 220.72 412.25 221.1 413.73 221.1C414.45 221.1 415.19 221.02 415.95 220.86C416.75 220.66 417.61 220.34 418.53 219.9L420.03 223.92ZM448.223 225.3C446.383 225.3 444.903 224.88 443.783 224.04C442.703 223.2 441.943 222.16 441.503 220.92C439.543 222.64 437.763 223.86 436.163 224.58C434.563 225.26 432.963 225.6 431.363 225.6C428.763 225.6 426.843 224.76 425.603 223.08C424.363 221.4 423.743 219.34 423.743 216.9C423.743 215.26 424.043 213.8 424.643 212.52C425.243 211.24 426.263 210.24 427.703 209.52C429.143 208.76 431.083 208.38 433.523 208.38C434.603 208.38 435.783 208.46 437.063 208.62C438.343 208.74 439.643 208.9 440.963 209.1V205.08C440.963 202.84 440.463 201.32 439.463 200.52C438.503 199.68 437.083 199.26 435.203 199.26C432.643 199.26 429.783 199.96 426.623 201.36L425.063 197.28C426.903 196.44 428.663 195.8 430.343 195.36C432.023 194.92 433.723 194.7 435.443 194.7C438.243 194.7 440.383 195.16 441.863 196.08C443.343 197 444.363 198.22 444.923 199.74C445.483 201.26 445.763 202.92 445.763 204.72V217.56C445.763 218.48 445.943 219.26 446.303 219.9C446.663 220.5 447.383 220.8 448.463 220.8H449.123V225.3H448.223ZM428.603 216.84C428.603 218.2 428.923 219.3 429.563 220.14C430.203 220.98 431.123 221.4 432.323 221.4C433.363 221.4 434.563 221.1 435.923 220.5C437.283 219.86 438.963 218.6 440.963 216.72V212.94C438.243 212.5 435.843 212.28 433.763 212.28C431.923 212.28 430.603 212.66 429.803 213.42C429.003 214.18 428.603 215.32 428.603 216.84ZM456.033 217.8V180.6H460.953V217.56C460.953 218.64 461.113 219.46 461.433 220.02C461.793 220.54 462.493 220.8 463.533 220.8H464.493V225.3H463.113C460.473 225.3 458.633 224.6 457.593 223.2C456.553 221.8 456.033 220 456.033 217.8ZM508.379 220.14V225H486.059V184.2H491.279V220.14H508.379ZM520.551 188.04H515.031V182.52H520.551V188.04ZM520.251 225H515.331V195.3H520.251V225ZM545.138 199.32C544.018 199.32 542.698 199.6 541.178 200.16C539.698 200.72 537.898 201.86 535.778 203.58V225H530.858V195.3H535.538V199.44C537.658 197.64 539.578 196.4 541.298 195.72C543.058 195.04 544.738 194.7 546.338 194.7C549.098 194.7 551.198 195.58 552.638 197.34C554.118 199.06 554.858 201.52 554.858 204.72V225H549.938V205.44C549.938 201.36 548.338 199.32 545.138 199.32ZM583.435 225L575.095 211.26C574.335 212.02 573.535 212.8 572.695 213.6C571.855 214.4 570.975 215.2 570.055 216V225H565.135V180.6H570.055V210.48C572.655 207.96 574.955 205.5 576.955 203.1C578.995 200.7 580.855 198.1 582.535 195.3H588.175C586.735 197.7 585.255 199.92 583.735 201.96C582.255 203.96 580.575 206 578.695 208.08L589.375 225H583.435ZM602.864 221.22C606.864 221.22 608.864 219.86 608.864 217.14C608.864 215.98 608.504 215.06 607.784 214.38C607.064 213.7 605.744 213.12 603.824 212.64L600.524 211.8C598.084 211.2 596.264 210.16 595.064 208.68C593.864 207.16 593.264 205.36 593.264 203.28C593.264 201.76 593.604 200.36 594.284 199.08C594.964 197.76 596.044 196.7 597.524 195.9C599.004 195.1 600.924 194.7 603.284 194.7C604.804 194.7 606.344 194.88 607.904 195.24C609.504 195.56 611.124 196.12 612.764 196.92L611.204 201.06C608.284 199.74 605.644 199.08 603.284 199.08C599.804 199.08 598.064 200.38 598.064 202.98C598.064 203.98 598.384 204.84 599.024 205.56C599.664 206.28 600.864 206.86 602.624 207.3L605.924 208.14C608.564 208.78 610.504 209.82 611.744 211.26C612.984 212.7 613.604 214.56 613.604 216.84C613.604 218.48 613.244 219.98 612.524 221.34C611.844 222.66 610.724 223.7 609.164 224.46C607.644 225.22 605.584 225.6 602.984 225.6C601.264 225.6 599.544 225.42 597.824 225.06C596.144 224.7 594.404 224.12 592.604 223.32L593.924 219.24C595.644 219.92 597.204 220.42 598.604 220.74C600.004 221.06 601.424 221.22 602.864 221.22Z" fill="#C2C2C2"/>
<path d="M336.93 91.51H309.285L304.535 105H293.23L316.885 38.88H329.425L353.08 105H341.68L336.93 91.51ZM333.89 82.675L323.155 51.99L312.325 82.675H333.89ZM367.735 105.665C365.772 105.665 364.125 105 362.795 103.67C361.465 102.34 360.8 100.693 360.8 98.73C360.8 96.7667 361.465 95.12 362.795 93.79C364.125 92.46 365.772 91.795 367.735 91.795C369.635 91.795 371.25 92.46 372.58 93.79C373.91 95.12 374.575 96.7667 374.575 98.73C374.575 100.693 373.91 102.34 372.58 103.67C371.25 105 369.635 105.665 367.735 105.665ZM428.935 38.975V47.81H411.36V105H400.53V47.81H382.86V38.975H428.935ZM444.273 105.665C442.31 105.665 440.663 105 439.333 103.67C438.003 102.34 437.338 100.693 437.338 98.73C437.338 96.7667 438.003 95.12 439.333 93.79C440.663 92.46 442.31 91.795 444.273 91.795C446.173 91.795 447.788 92.46 449.118 93.79C450.448 95.12 451.113 96.7667 451.113 98.73C451.113 100.693 450.448 102.34 449.118 103.67C447.788 105 446.173 105.665 444.273 105.665ZM498.326 38.975V105H487.496V38.975H498.326ZM566.79 105H555.96L523.375 55.695V105H512.545V38.88H523.375L555.96 88.09V38.88H566.79V105ZM617.397 105L591.842 75.455V105H581.012V38.975H591.842V69.09L617.492 38.975H631.077L602.387 72.035L631.552 105H617.397ZM662.884 105.665C658.451 105.665 654.461 104.905 650.914 103.385C647.367 101.802 644.581 99.585 642.554 96.735C640.527 93.885 639.514 90.56 639.514 86.76H651.104C651.357 89.61 652.466 91.9533 654.429 93.79C656.456 95.6267 659.274 96.545 662.884 96.545C666.621 96.545 669.534 95.6583 671.624 93.885C673.714 92.0483 674.759 89.705 674.759 86.855C674.759 84.6383 674.094 82.8333 672.764 81.44C671.497 80.0467 669.882 78.97 667.919 78.21C666.019 77.45 663.359 76.6267 659.939 75.74C655.632 74.6 652.117 73.46 649.394 72.32C646.734 71.1167 644.454 69.28 642.554 66.81C640.654 64.34 639.704 61.0467 639.704 56.93C639.704 53.13 640.654 49.805 642.554 46.955C644.454 44.105 647.114 41.92 650.534 40.4C653.954 38.88 657.912 38.12 662.409 38.12C668.806 38.12 674.031 39.735 678.084 42.965C682.201 46.1317 684.481 50.5017 684.924 56.075H672.954C672.764 53.6683 671.624 51.61 669.534 49.9C667.444 48.19 664.689 47.335 661.269 47.335C658.166 47.335 655.632 48.1267 653.669 49.71C651.706 51.2933 650.724 53.5733 650.724 56.55C650.724 58.5767 651.326 60.255 652.529 61.585C653.796 62.8517 655.379 63.865 657.279 64.625C659.179 65.385 661.776 66.2083 665.069 67.095C669.439 68.2983 672.986 69.5017 675.709 70.705C678.496 71.9083 680.839 73.7767 682.739 76.31C684.702 78.78 685.684 82.105 685.684 86.285C685.684 89.6417 684.766 92.8083 682.929 95.785C681.156 98.7617 678.527 101.168 675.044 103.005C671.624 104.778 667.571 105.665 662.884 105.665Z" fill="black"/>
</svg>
