<svg width="719" height="225" viewBox="0 0 719 225" fill="none" xmlns="http://www.w3.org/2000/svg">
<rect width="240.536" height="34.6353" rx="17.3177" transform="matrix(0.48925 0.872144 -0.912375 0.409356 130.184 0.608154)" fill="#ED2885"/>
<rect width="240.223" height="34.6748" rx="17.3374" transform="matrix(0.476388 -0.879235 0.91755 0.397621 0 211.212)" fill="#00BBF1" fill-opacity="0.56"/>
<rect x="85.666" y="144.713" width="75.4677" height="13.3768" rx="6.68841" fill="#F3CA27"/>
<rect x="115.921" y="213.117" width="67.4922" height="14.9576" rx="7.47878" transform="rotate(-90 115.921 213.117)" fill="#F3CA27"/>
<path d="M318.93 141.51H291.285L286.535 155H275.23L298.885 88.88H311.425L335.08 155H323.68L318.93 141.51ZM315.89 132.675L305.155 101.99L294.325 132.675H315.89ZM349.735 155.665C347.772 155.665 346.125 155 344.795 153.67C343.465 152.34 342.8 150.693 342.8 148.73C342.8 146.767 343.465 145.12 344.795 143.79C346.125 142.46 347.772 141.795 349.735 141.795C351.635 141.795 353.25 142.46 354.58 143.79C355.91 145.12 356.575 146.767 356.575 148.73C356.575 150.693 355.91 152.34 354.58 153.67C353.25 155 351.635 155.665 349.735 155.665ZM410.935 88.975V97.81H393.36V155H382.53V97.81H364.86V88.975H410.935ZM426.273 155.665C424.31 155.665 422.663 155 421.333 153.67C420.003 152.34 419.338 150.693 419.338 148.73C419.338 146.767 420.003 145.12 421.333 143.79C422.663 142.46 424.31 141.795 426.273 141.795C428.173 141.795 429.788 142.46 431.118 143.79C432.448 145.12 433.113 146.767 433.113 148.73C433.113 150.693 432.448 152.34 431.118 153.67C429.788 155 428.173 155.665 426.273 155.665ZM480.326 88.975V155H469.496V88.975H480.326ZM548.79 155H537.96L505.375 105.695V155H494.545V88.88H505.375L537.96 138.09V88.88H548.79V155ZM599.397 155L573.842 125.455V155H563.012V88.975H573.842V119.09L599.492 88.975H613.077L584.387 122.035L613.552 155H599.397ZM644.884 155.665C640.451 155.665 636.461 154.905 632.914 153.385C629.367 151.802 626.581 149.585 624.554 146.735C622.527 143.885 621.514 140.56 621.514 136.76H633.104C633.357 139.61 634.466 141.953 636.429 143.79C638.456 145.627 641.274 146.545 644.884 146.545C648.621 146.545 651.534 145.658 653.624 143.885C655.714 142.048 656.759 139.705 656.759 136.855C656.759 134.638 656.094 132.833 654.764 131.44C653.497 130.047 651.882 128.97 649.919 128.21C648.019 127.45 645.359 126.627 641.939 125.74C637.632 124.6 634.117 123.46 631.394 122.32C628.734 121.117 626.454 119.28 624.554 116.81C622.654 114.34 621.704 111.047 621.704 106.93C621.704 103.13 622.654 99.805 624.554 96.955C626.454 94.105 629.114 91.92 632.534 90.4C635.954 88.88 639.912 88.12 644.409 88.12C650.806 88.12 656.031 89.735 660.084 92.965C664.201 96.1317 666.481 100.502 666.924 106.075H654.954C654.764 103.668 653.624 101.61 651.534 99.9C649.444 98.19 646.689 97.335 643.269 97.335C640.166 97.335 637.632 98.1267 635.669 99.71C633.706 101.293 632.724 103.573 632.724 106.55C632.724 108.577 633.326 110.255 634.529 111.585C635.796 112.852 637.379 113.865 639.279 114.625C641.179 115.385 643.776 116.208 647.069 117.095C651.439 118.298 654.986 119.502 657.709 120.705C660.496 121.908 662.839 123.777 664.739 126.31C666.702 128.78 667.684 132.105 667.684 136.285C667.684 139.642 666.766 142.808 664.929 145.785C663.156 148.762 660.527 151.168 657.044 153.005C653.624 154.778 649.571 155.665 644.884 155.665Z" fill="black"/>
</svg>
