<svg width="839" height="325" viewBox="0 0 839 325" fill="none" xmlns="http://www.w3.org/2000/svg">
<rect width="240.536" height="34.6353" rx="17.3177" transform="matrix(0.48925 0.872144 -0.912375 0.409356 176.184 30.6082)" fill="#ED2885"/>
<rect width="240.223" height="34.6748" rx="17.3374" transform="matrix(0.476388 -0.879235 0.91755 0.397621 46 241.212)" fill="#00BBF1" fill-opacity="0.56"/>
<rect x="131.666" y="174.713" width="75.4677" height="13.3768" rx="6.68841" fill="#F3CA27"/>
<rect x="161.921" y="243.117" width="67.4922" height="14.9576" rx="7.47878" transform="rotate(-90 161.921 243.117)" fill="#F3CA27"/>
<path d="M406.36 243V202.2H419.02C423.7 202.2 427.3 203.62 429.82 206.46C432.34 209.26 433.6 213.14 433.6 218.1V227.04C433.6 232.04 432.34 235.96 429.82 238.8C427.3 241.6 423.7 243 419.02 243H406.36ZM418.9 207.12H411.58V238.14H418.9C425.1 238.14 428.2 234.44 428.2 227.04V218.1C428.2 210.78 425.1 207.12 418.9 207.12ZM448.703 206.04H443.183V200.52H448.703V206.04ZM448.403 243H443.483V213.3H448.403V243ZM482.77 246.72C482.77 249.64 481.57 251.98 479.17 253.74C476.81 255.5 473.55 256.38 469.39 256.38C467.31 256.38 465.13 256.1 462.85 255.54C460.61 254.98 458.49 254.08 456.49 252.84L458.17 249C460.17 250.12 462.09 250.9 463.93 251.34C465.81 251.82 467.63 252.06 469.39 252.06C472.11 252.06 474.21 251.62 475.69 250.74C477.17 249.86 477.91 248.68 477.91 247.2C477.91 246.12 477.55 245.28 476.83 244.68C476.11 244.12 474.95 243.84 473.35 243.84H466.45C463.85 243.84 461.97 243.22 460.81 241.98C459.65 240.74 459.07 239.38 459.07 237.9C459.07 236.86 459.31 235.84 459.79 234.84C460.27 233.8 460.95 232.78 461.83 231.78C460.43 230.94 459.31 229.8 458.47 228.36C457.63 226.88 457.21 225.1 457.21 223.02C457.21 220.74 457.69 218.84 458.65 217.32C459.65 215.8 460.97 214.66 462.61 213.9C464.25 213.1 466.09 212.7 468.13 212.7H469.15C470.55 212.7 471.83 212.9 472.99 213.3H483.67V217.68L477.19 216.78C478.03 217.5 478.71 218.4 479.23 219.48C479.75 220.52 480.01 221.8 480.01 223.32C480.01 225.48 479.51 227.3 478.51 228.78C477.55 230.26 476.25 231.4 474.61 232.2C472.97 232.96 471.15 233.34 469.15 233.34H468.13C467.61 233.34 467.11 233.32 466.63 233.28C466.15 233.2 465.67 233.12 465.19 233.04C464.03 234.32 463.45 235.58 463.45 236.82C463.45 238.42 464.57 239.22 466.81 239.22H473.53C476.41 239.22 478.67 239.86 480.31 241.14C481.95 242.42 482.77 244.28 482.77 246.72ZM469.15 229.08C470.71 229.08 472.09 228.58 473.29 227.58C474.49 226.58 475.09 225.06 475.09 223.02C475.09 221.02 474.49 219.52 473.29 218.52C472.09 217.48 470.71 216.96 469.15 216.96H468.13C466.53 216.96 465.13 217.48 463.93 218.52C462.73 219.52 462.13 221.02 462.13 223.02C462.13 225.06 462.73 226.58 463.93 227.58C465.13 228.58 466.53 229.08 468.13 229.08H469.15ZM495.402 206.04H489.882V200.52H495.402V206.04ZM495.102 243H490.182V213.3H495.102V243ZM522.03 241.92C519.79 243.04 517.41 243.6 514.89 243.6C512.73 243.6 511.03 243.16 509.79 242.28C508.59 241.4 507.73 240.22 507.21 238.74C506.73 237.26 506.49 235.62 506.49 233.82V217.62H501.33V213.3H506.49V205.02H511.41V213.3H521.13V217.62H511.41V233.64C511.41 235.72 511.75 237.16 512.43 237.96C513.15 238.72 514.25 239.1 515.73 239.1C516.45 239.1 517.19 239.02 517.95 238.86C518.75 238.66 519.61 238.34 520.53 237.9L522.03 241.92ZM550.223 243.3C548.383 243.3 546.903 242.88 545.783 242.04C544.703 241.2 543.943 240.16 543.503 238.92C541.543 240.64 539.763 241.86 538.163 242.58C536.563 243.26 534.963 243.6 533.363 243.6C530.763 243.6 528.843 242.76 527.603 241.08C526.363 239.4 525.743 237.34 525.743 234.9C525.743 233.26 526.043 231.8 526.643 230.52C527.243 229.24 528.263 228.24 529.703 227.52C531.143 226.76 533.083 226.38 535.523 226.38C536.603 226.38 537.783 226.46 539.063 226.62C540.343 226.74 541.643 226.9 542.963 227.1V223.08C542.963 220.84 542.463 219.32 541.463 218.52C540.503 217.68 539.083 217.26 537.203 217.26C534.643 217.26 531.783 217.96 528.623 219.36L527.063 215.28C528.903 214.44 530.663 213.8 532.343 213.36C534.023 212.92 535.723 212.7 537.443 212.7C540.243 212.7 542.383 213.16 543.863 214.08C545.343 215 546.363 216.22 546.923 217.74C547.483 219.26 547.763 220.92 547.763 222.72V235.56C547.763 236.48 547.943 237.26 548.303 237.9C548.663 238.5 549.383 238.8 550.463 238.8H551.123V243.3H550.223ZM530.603 234.84C530.603 236.2 530.923 237.3 531.563 238.14C532.203 238.98 533.123 239.4 534.323 239.4C535.363 239.4 536.563 239.1 537.923 238.5C539.283 237.86 540.963 236.6 542.963 234.72V230.94C540.243 230.5 537.843 230.28 535.763 230.28C533.923 230.28 532.603 230.66 531.803 231.42C531.003 232.18 530.603 233.32 530.603 234.84ZM558.033 235.8V198.6H562.953V235.56C562.953 236.64 563.113 237.46 563.433 238.02C563.793 238.54 564.493 238.8 565.533 238.8H566.493V243.3H565.113C562.473 243.3 560.633 242.6 559.593 241.2C558.553 239.8 558.033 238 558.033 235.8ZM610.379 238.14V243H588.059V202.2H593.279V238.14H610.379ZM622.551 206.04H617.031V200.52H622.551V206.04ZM622.251 243H617.331V213.3H622.251V243ZM647.138 217.32C646.018 217.32 644.698 217.6 643.178 218.16C641.698 218.72 639.898 219.86 637.778 221.58V243H632.858V213.3H637.538V217.44C639.658 215.64 641.578 214.4 643.298 213.72C645.058 213.04 646.738 212.7 648.338 212.7C651.098 212.7 653.198 213.58 654.638 215.34C656.118 217.06 656.858 219.52 656.858 222.72V243H651.938V223.44C651.938 219.36 650.338 217.32 647.138 217.32ZM685.435 243L677.095 229.26C676.335 230.02 675.535 230.8 674.695 231.6C673.855 232.4 672.975 233.2 672.055 234V243H667.135V198.6H672.055V228.48C674.655 225.96 676.955 223.5 678.955 221.1C680.995 218.7 682.855 216.1 684.535 213.3H690.175C688.735 215.7 687.255 217.92 685.735 219.96C684.255 221.96 682.575 224 680.695 226.08L691.375 243H685.435ZM704.864 239.22C708.864 239.22 710.864 237.86 710.864 235.14C710.864 233.98 710.504 233.06 709.784 232.38C709.064 231.7 707.744 231.12 705.824 230.64L702.524 229.8C700.084 229.2 698.264 228.16 697.064 226.68C695.864 225.16 695.264 223.36 695.264 221.28C695.264 219.76 695.604 218.36 696.284 217.08C696.964 215.76 698.044 214.7 699.524 213.9C701.004 213.1 702.924 212.7 705.284 212.7C706.804 212.7 708.344 212.88 709.904 213.24C711.504 213.56 713.124 214.12 714.764 214.92L713.204 219.06C710.284 217.74 707.644 217.08 705.284 217.08C701.804 217.08 700.064 218.38 700.064 220.98C700.064 221.98 700.384 222.84 701.024 223.56C701.664 224.28 702.864 224.86 704.624 225.3L707.924 226.14C710.564 226.78 712.504 227.82 713.744 229.26C714.984 230.7 715.604 232.56 715.604 234.84C715.604 236.48 715.244 237.98 714.524 239.34C713.844 240.66 712.724 241.7 711.164 242.46C709.644 243.22 707.584 243.6 704.984 243.6C703.264 243.6 701.544 243.42 699.824 243.06C698.144 242.7 696.404 242.12 694.604 241.32L695.924 237.24C697.644 237.92 699.204 238.42 700.604 238.74C702.004 239.06 703.424 239.22 704.864 239.22Z" fill="#C2C2C2"/>
<path d="M438.93 134.51H411.285L406.535 148H395.23L418.885 81.88H431.425L455.08 148H443.68L438.93 134.51ZM435.89 125.675L425.155 94.99L414.325 125.675H435.89ZM469.735 148.665C467.772 148.665 466.125 148 464.795 146.67C463.465 145.34 462.8 143.693 462.8 141.73C462.8 139.767 463.465 138.12 464.795 136.79C466.125 135.46 467.772 134.795 469.735 134.795C471.635 134.795 473.25 135.46 474.58 136.79C475.91 138.12 476.575 139.767 476.575 141.73C476.575 143.693 475.91 145.34 474.58 146.67C473.25 148 471.635 148.665 469.735 148.665ZM530.935 81.975V90.81H513.36V148H502.53V90.81H484.86V81.975H530.935ZM546.273 148.665C544.31 148.665 542.663 148 541.333 146.67C540.003 145.34 539.338 143.693 539.338 141.73C539.338 139.767 540.003 138.12 541.333 136.79C542.663 135.46 544.31 134.795 546.273 134.795C548.173 134.795 549.788 135.46 551.118 136.79C552.448 138.12 553.113 139.767 553.113 141.73C553.113 143.693 552.448 145.34 551.118 146.67C549.788 148 548.173 148.665 546.273 148.665ZM600.326 81.975V148H589.496V81.975H600.326ZM668.79 148H657.96L625.375 98.695V148H614.545V81.88H625.375L657.96 131.09V81.88H668.79V148ZM719.397 148L693.842 118.455V148H683.012V81.975H693.842V112.09L719.492 81.975H733.077L704.387 115.035L733.552 148H719.397ZM764.884 148.665C760.451 148.665 756.461 147.905 752.914 146.385C749.367 144.802 746.581 142.585 744.554 139.735C742.527 136.885 741.514 133.56 741.514 129.76H753.104C753.357 132.61 754.466 134.953 756.429 136.79C758.456 138.627 761.274 139.545 764.884 139.545C768.621 139.545 771.534 138.658 773.624 136.885C775.714 135.048 776.759 132.705 776.759 129.855C776.759 127.638 776.094 125.833 774.764 124.44C773.497 123.047 771.882 121.97 769.919 121.21C768.019 120.45 765.359 119.627 761.939 118.74C757.632 117.6 754.117 116.46 751.394 115.32C748.734 114.117 746.454 112.28 744.554 109.81C742.654 107.34 741.704 104.047 741.704 99.93C741.704 96.13 742.654 92.805 744.554 89.955C746.454 87.105 749.114 84.92 752.534 83.4C755.954 81.88 759.912 81.12 764.409 81.12C770.806 81.12 776.031 82.735 780.084 85.965C784.201 89.1317 786.481 93.5017 786.924 99.075H774.954C774.764 96.6683 773.624 94.61 771.534 92.9C769.444 91.19 766.689 90.335 763.269 90.335C760.166 90.335 757.632 91.1267 755.669 92.71C753.706 94.2933 752.724 96.5733 752.724 99.55C752.724 101.577 753.326 103.255 754.529 104.585C755.796 105.852 757.379 106.865 759.279 107.625C761.179 108.385 763.776 109.208 767.069 110.095C771.439 111.298 774.986 112.502 777.709 113.705C780.496 114.908 782.839 116.777 784.739 119.31C786.702 121.78 787.684 125.105 787.684 129.285C787.684 132.642 786.766 135.808 784.929 138.785C783.156 141.762 780.527 144.168 777.044 146.005C773.624 147.778 769.571 148.665 764.884 148.665Z" fill="black"/>
<path d="M337.666 162.5C337.666 250.759 262.745 322.5 170.083 322.5C77.4207 322.5 2.5 250.759 2.5 162.5C2.5 74.2407 77.4207 2.5 170.083 2.5C262.745 2.5 337.666 74.2407 337.666 162.5Z" stroke="#DDDEDF" stroke-width="5"/>
</svg>
