<svg width="393" height="68" viewBox="0 0 393 68" fill="none" xmlns="http://www.w3.org/2000/svg">
<path d="M43.93 53.51H16.285L11.535 67H0.23L23.885 0.879996H36.425L60.08 67H48.68L43.93 53.51ZM40.89 44.675L30.155 13.99L19.325 44.675H40.89ZM74.7352 67.665C72.7719 67.665 71.1252 67 69.7952 65.67C68.4652 64.34 67.8002 62.6933 67.8002 60.73C67.8002 58.7667 68.4652 57.12 69.7952 55.79C71.1252 54.46 72.7719 53.795 74.7352 53.795C76.6352 53.795 78.2502 54.46 79.5802 55.79C80.9102 57.12 81.5752 58.7667 81.5752 60.73C81.5752 62.6933 80.9102 64.34 79.5802 65.67C78.2502 67 76.6352 67.665 74.7352 67.665ZM135.935 0.974995V9.80999H118.36V67H107.53V9.80999H89.8603V0.974995H135.935ZM151.273 67.665C149.31 67.665 147.663 67 146.333 65.67C145.003 64.34 144.338 62.6933 144.338 60.73C144.338 58.7667 145.003 57.12 146.333 55.79C147.663 54.46 149.31 53.795 151.273 53.795C153.173 53.795 154.788 54.46 156.118 55.79C157.448 57.12 158.113 58.7667 158.113 60.73C158.113 62.6933 157.448 64.34 156.118 65.67C154.788 67 153.173 67.665 151.273 67.665ZM205.326 0.974995V67H194.496V0.974995H205.326ZM273.79 67H262.96L230.375 17.695V67H219.545V0.879996H230.375L262.96 50.09V0.879996H273.79V67ZM324.397 67L298.842 37.455V67H288.012V0.974995H298.842V31.09L324.492 0.974995H338.077L309.387 34.035L338.552 67H324.397ZM369.884 67.665C365.451 67.665 361.461 66.905 357.914 65.385C354.367 63.8017 351.581 61.585 349.554 58.735C347.527 55.885 346.514 52.56 346.514 48.76H358.104C358.357 51.61 359.466 53.9533 361.429 55.79C363.456 57.6267 366.274 58.545 369.884 58.545C373.621 58.545 376.534 57.6583 378.624 55.885C380.714 54.0483 381.759 51.705 381.759 48.855C381.759 46.6383 381.094 44.8333 379.764 43.44C378.497 42.0467 376.882 40.97 374.919 40.21C373.019 39.45 370.359 38.6267 366.939 37.74C362.632 36.6 359.117 35.46 356.394 34.32C353.734 33.1167 351.454 31.28 349.554 28.81C347.654 26.34 346.704 23.0467 346.704 18.93C346.704 15.13 347.654 11.805 349.554 8.955C351.454 6.105 354.114 3.92 357.534 2.4C360.954 0.879996 364.912 0.119995 369.409 0.119995C375.806 0.119995 381.031 1.73499 385.084 4.96499C389.201 8.13166 391.481 12.5017 391.924 18.075H379.954C379.764 15.6683 378.624 13.61 376.534 11.9C374.444 10.19 371.689 9.33499 368.269 9.33499C365.166 9.33499 362.632 10.1267 360.669 11.71C358.706 13.2933 357.724 15.5733 357.724 18.55C357.724 20.5767 358.326 22.255 359.529 23.585C360.796 24.8517 362.379 25.865 364.279 26.625C366.179 27.385 368.776 28.2083 372.069 29.095C376.439 30.2983 379.986 31.5017 382.709 32.705C385.496 33.9083 387.839 35.7767 389.739 38.31C391.702 40.78 392.684 44.105 392.684 48.285C392.684 51.6417 391.766 54.8083 389.929 57.785C388.156 60.7617 385.527 63.1683 382.044 65.005C378.624 66.7783 374.571 67.665 369.884 67.665Z" fill="black"/>
</svg>
