<svg width="24" height="24" viewBox="0 0 24 24" fill="none" xmlns="http://www.w3.org/2000/svg">
<path d="M10.699 6.72422C10.899 6.92422 10.995 7.16589 10.987 7.44922C10.979 7.73255 10.8747 7.97422 10.674 8.17422L7.84902 10.9992L18.999 10.9992C19.2824 10.9992 19.52 11.0952 19.712 11.2872C19.904 11.4792 19.9997 11.7166 19.999 11.9992C19.999 12.2826 19.903 12.5202 19.711 12.7122C19.519 12.9042 19.2817 12.9999 18.999 12.9992L7.84902 12.9992L10.699 15.8492C10.899 16.0492 10.999 16.2869 10.999 16.5622C10.999 16.8376 10.899 17.0749 10.699 17.2742C10.499 17.4742 10.2614 17.5742 9.98602 17.5742C9.71069 17.5742 9.47335 17.4742 9.27402 17.2742L4.69902 12.6992C4.59902 12.5992 4.52802 12.4909 4.48602 12.3742C4.44402 12.2576 4.42335 12.1326 4.42402 11.9992C4.42402 11.8659 4.44502 11.7409 4.48702 11.6242C4.52902 11.5076 4.59969 11.3992 4.69902 11.2992L9.29902 6.69922C9.48235 6.51589 9.71135 6.42422 9.98602 6.42422C10.2607 6.42422 10.4984 6.52422 10.699 6.72422Z" fill="black"/>
</svg>
